<?xml version="1.0" standalone="no"?>
<!DOCTYPE svg PUBLIC "-//W3C//DTD SVG 20010904//EN"
 "http://www.w3.org/TR/2001/REC-SVG-20010904/DTD/svg10.dtd">
<svg version="1.0" xmlns="http://www.w3.org/2000/svg"
 width="233.000000pt" height="216.000000pt" viewBox="0 0 233.000000 216.000000"
 preserveAspectRatio="xMidYMid meet">

<g transform="translate(0.000000,216.000000) scale(0.100000,-0.100000)"
fill="#000000" stroke="none">
<path d="M1346 2119 c-35 -41 -40 -128 -10 -174 24 -37 7 -87 -37 -100 -19 -6
-54 -21 -79 -33 -25 -12 -51 -22 -57 -22 -23 0 -61 -75 -82 -162 -12 -47 -21
-96 -21 -107 0 -11 -4 -23 -10 -26 -6 -4 -10 12 -10 42 0 110 -5 119 -90 170
-42 25 -82 54 -88 63 -7 12 -6 45 4 116 l15 99 -26 23 c-31 26 -90 30 -122 7
-33 -23 -47 -78 -34 -130 6 -24 11 -62 11 -84 0 -36 -4 -43 -37 -65 -21 -13
-54 -27 -74 -30 -45 -8 -65 -30 -74 -81 -4 -22 -16 -75 -27 -118 -22 -86 -18
-119 24 -246 18 -56 20 -80 15 -182 -5 -110 -4 -119 14 -124 10 -4 19 -9 19
-13 1 -4 5 -77 10 -162 6 -85 10 -257 11 -382 l0 -227 -26 -40 c-15 -22 -33
-42 -41 -45 -8 -3 -14 -12 -14 -21 0 -12 13 -15 60 -15 45 0 60 4 60 14 0 8
15 19 34 26 41 13 43 20 50 270 6 172 21 381 33 430 4 20 11 7 29 -60 26 -91
53 -293 61 -455 4 -77 9 -103 21 -113 11 -8 19 -33 22 -70 l5 -57 43 -3 c51
-4 59 9 43 74 -9 34 -9 50 -1 59 8 10 8 78 0 252 -14 283 -4 505 23 526 15 11
15 25 5 144 l-11 132 26 59 c15 33 27 75 28 93 0 33 1 32 18 -17 9 -27 27 -64
39 -81 23 -33 98 -103 110 -103 4 0 7 -123 6 -274 0 -214 -3 -278 -14 -290
-19 -24 -8 -195 16 -235 17 -28 17 -31 1 -49 -9 -10 -17 -33 -17 -52 0 -24
-10 -44 -40 -76 -58 -63 -50 -94 23 -94 30 0 45 7 66 29 15 16 40 31 57 33 27
3 29 6 37 63 4 33 8 67 7 75 0 8 -2 92 -3 185 -3 158 -2 179 25 295 34 150 47
192 57 185 5 -2 11 -44 15 -92 3 -48 11 -114 17 -146 9 -43 9 -96 0 -207 -6
-82 -9 -190 -5 -239 6 -84 8 -90 31 -96 14 -3 37 -19 51 -35 26 -27 46 -33
105 -31 41 2 35 34 -18 93 -47 52 -56 86 -30 108 10 8 15 30 15 64 0 28 4 89
10 135 8 68 7 89 -5 112 -19 37 -19 112 1 218 12 63 15 115 11 193 l-6 107 35
53 c61 90 86 148 86 197 0 83 -60 282 -102 341 -11 15 -52 44 -92 65 -40 21
-75 39 -77 41 -2 2 8 27 23 55 21 42 26 67 26 124 0 82 -9 96 -75 114 -59 16
-71 14 -99 -20z m266 -695 c-2 -13 1 -31 8 -39 7 -9 9 -22 5 -32 -7 -15 -9
-13 -15 12 -11 43 -12 113 -1 97 4 -7 6 -24 3 -38z"/>
<path d="M1957 1989 c-52 -40 -59 -146 -16 -230 l21 -42 -27 -22 c-15 -11 -49
-29 -75 -38 -53 -19 -56 -23 -76 -122 -31 -153 -36 -193 -29 -275 4 -56 0
-123 -10 -198 -15 -106 -15 -117 1 -170 10 -31 20 -75 23 -96 5 -35 10 -41 47
-53 41 -14 41 -14 53 -83 6 -38 11 -102 11 -142 0 -40 9 -114 20 -164 13 -62
17 -110 13 -150 -5 -52 -11 -65 -49 -106 -24 -26 -44 -50 -44 -54 0 -11 101 6
131 22 38 19 42 18 35 -11 -10 -38 18 -46 82 -25 30 10 58 22 64 28 6 6 10 47
9 95 -1 54 6 117 19 176 20 90 20 95 3 221 -19 149 -13 180 34 180 16 0 38 3
50 6 21 6 22 10 16 61 -5 51 -4 57 18 73 23 18 23 20 11 77 -15 76 -15 120 4
213 19 92 19 100 5 230 -13 119 -43 222 -74 251 -12 11 -45 27 -73 35 -60 17
-73 29 -80 76 -5 29 -2 37 20 51 32 21 35 72 7 133 -33 72 -93 94 -144 53z
m75 -1564 c3 -127 -17 -176 -40 -97 -7 24 -9 86 -5 182 l6 145 19 -70 c10 -38
19 -110 20 -160z"/>
<path d="M217 1938 c-13 -18 -42 -66 -63 -107 -21 -40 -49 -83 -61 -95 -13
-11 -23 -29 -23 -38 0 -9 -11 -34 -25 -54 -32 -46 -31 -82 0 -179 30 -90 50
-131 79 -163 l21 -23 -28 -52 c-23 -43 -25 -53 -13 -66 10 -12 11 -33 6 -81
-4 -36 -5 -147 -2 -246 4 -130 1 -196 -8 -230 -7 -28 -15 -141 -19 -260 l-6
-211 -33 -52 c-17 -29 -32 -57 -32 -62 0 -11 56 -11 84 0 10 4 24 20 31 37 12
26 13 27 14 7 1 -13 7 -23 15 -23 18 0 31 128 15 147 -14 16 -4 115 17 175 8
23 19 87 25 142 6 56 15 117 21 136 11 33 11 34 20 11 5 -14 5 -45 -1 -75 -5
-29 -7 -113 -4 -188 5 -120 4 -140 -12 -164 -13 -21 -16 -38 -11 -75 8 -58 15
-79 26 -79 5 0 10 12 12 28 4 24 5 25 12 7 16 -43 24 -50 61 -53 64 -6 71 3
36 43 -49 56 -50 73 -17 320 9 61 15 142 16 180 0 47 10 104 30 175 37 129 53
255 43 335 -8 55 -6 65 19 110 15 28 28 53 28 57 0 19 -64 78 -86 78 -29 0
-29 -2 -5 51 11 24 17 47 14 52 -3 4 -6 18 -8 30 -2 12 -11 42 -20 66 -10 29
-12 47 -6 55 6 7 6 17 1 26 -6 8 -10 68 -10 132 0 135 -7 161 -52 188 -47 29
-73 25 -101 -12z"/>
</g>
</svg>
